<svg xmlns="http://www.w3.org/2000/svg" width="32" height="32" viewBox="0 0 32 32">
    <g fill="none" fill-rule="evenodd" transform="translate(1 1)">
        <circle cx="15" cy="15" r="15" stroke="#44424D"/>
        <g fill="#44424D" fill-rule="nonzero">
            <path d="M21.271 11.153L17.24 9.137a.142.142 0 0 0-.058-.014h-.004a.146.146 0 0 0-.124.067l-2.485 4.038 2.774 4.508 3.969-6.448a.095.095 0 0 0-.04-.135zM13.253 11.81v4.351l3.869 1.933zM17.46 18.261l3.552 1.776c.194.097.352-.001.352-.218v-7.903l-3.904 6.345zM12.826 11.174l-3.72-1.86-.235-.118a.215.215 0 0 0-.095-.025.128.128 0 0 0-.102.046.194.194 0 0 0-.038.124v8.49c0 .145.105.317.235.381l3.655 1.828c.051.025.1.037.143.037.123 0 .21-.095.21-.256v-8.563a.093.093 0 0 0-.052-.084z"/>
        </g>
    </g>
</svg>
