<svg xmlns="http://www.w3.org/2000/svg" width="32" height="32" viewBox="0 0 32 32">
    <g fill="none" fill-rule="evenodd" transform="translate(1 1)">
        <circle cx="15" cy="15" r="15" stroke="#44424D"/>
        <path fill="#44424D" fill-rule="nonzero" d="M15 8c-3.86 0-7 3.14-7 7s3.14 7 7 7 7-3.14 7-7-3.14-7-7-7zm6.125 7c-1.7-.442-3.183-.46-4.463-.217-.187-.43-.38-.846-.574-1.242 1.343-.54 2.615-1.336 3.596-2.48A6.096 6.096 0 0 1 21.125 15zm-2.051-4.561c-.898 1.071-2.108 1.805-3.39 2.307a30.4 30.4 0 0 0-2.266-3.656A6.086 6.086 0 0 1 15 8.875c1.565 0 2.99.595 4.074 1.564zM12.549 9.39a29.794 29.794 0 0 1 2.29 3.652c-2.391.744-4.839.784-5.845.761a6.143 6.143 0 0 1 3.555-4.413zM8.875 15c0-.108.011-.213.016-.32.164.005.366.01.603.01 1.279 0 3.537-.126 5.755-.847.183.368.364.753.542 1.153-2.942.885-4.645 3.119-5.292 4.143A6.094 6.094 0 0 1 8.875 15zm2.266 4.75c.479-.832 2.04-3.146 4.985-3.965.594 1.462 1.104 3.087 1.388 4.794a6.083 6.083 0 0 1-6.373-.828zm7.186.386a23.821 23.821 0 0 0-1.325-4.54c1.161-.184 2.507-.132 4.051.292a6.127 6.127 0 0 1-2.726 4.248z"/>
    </g>
</svg>
