<svg xmlns="http://www.w3.org/2000/svg" width="32" height="32" viewBox="0 0 32 32">
    <g fill="none" fill-rule="evenodd" transform="translate(1 1)">
        <circle cx="15" cy="15" r="15" stroke="#44424D"/>
        <g fill="#44424D" fill-rule="nonzero">
            <path d="M18.08 8h-6.238A3.847 3.847 0 0 0 8 11.842v6.239a3.846 3.846 0 0 0 3.842 3.842h6.238a3.847 3.847 0 0 0 3.843-3.842v-6.239A3.847 3.847 0 0 0 18.08 8zm2.608 10.08a2.61 2.61 0 0 1-2.607 2.607h-6.239a2.61 2.61 0 0 1-2.607-2.606v-6.239a2.61 2.61 0 0 1 2.607-2.607h6.238a2.61 2.61 0 0 1 2.607 2.607v6.239z"/>
            <path d="M14.961 11.374a3.592 3.592 0 0 0-3.587 3.588 3.591 3.591 0 0 0 3.587 3.587 3.591 3.591 0 0 0 3.588-3.587 3.592 3.592 0 0 0-3.588-3.588zm0 5.94a2.355 2.355 0 0 1-2.352-2.353 2.355 2.355 0 0 1 2.352-2.352 2.355 2.355 0 0 1 2.353 2.352 2.355 2.355 0 0 1-2.353 2.353zM18.7 10.327a.91.91 0 0 0-.907.905c0 .239.098.472.266.641a.913.913 0 0 0 .64.265.915.915 0 0 0 .641-.265.91.91 0 0 0 0-1.281.91.91 0 0 0-.64-.265z"/>
        </g>
    </g>
</svg>
